<?xml version="1.0" standalone="no"?>
<!DOCTYPE svg PUBLIC "-//W3C//DTD SVG 20010904//EN"
 "http://www.w3.org/TR/2001/REC-SVG-20010904/DTD/svg10.dtd">
<svg version="1.0" xmlns="http://www.w3.org/2000/svg"
 width="512.000000pt" height="512.000000pt" viewBox="0 0 512.000000 512.000000"
 preserveAspectRatio="xMidYMid meet">
<metadata>
Created by potrace 1.16, written by Peter Selinger 2001-2019
</metadata>
<g transform="translate(0.000000,512.000000) scale(0.100000,-0.100000)"
fill="#000000" stroke="none">
<path d="M2410 4821 c0 -4 -5 -66 -10 -137 -23 -281 -92 -484 -240 -704 -71
-106 -90 -142 -90 -174 0 -38 -12 -38 -70 1 -99 67 -259 130 -563 223 -76 23
-141 40 -143 37 -2 -2 23 -60 55 -128 33 -68 80 -185 104 -259 44 -130 85
-296 76 -304 -2 -2 -60 15 -129 38 -119 41 -335 91 -365 84 -9 -2 3 -28 40
-83 30 -45 99 -169 154 -277 l100 -195 -142 -6 c-135 -5 -348 -31 -374 -46 -8
-4 34 -38 110 -88 153 -102 252 -182 392 -317 l110 -105 -35 -32 c-157 -141
-202 -183 -228 -216 l-30 -38 212 0 c163 0 233 -4 309 -18 105 -20 113 -28 77
-74 -11 -15 -19 -27 -17 -29 1 -2 20 1 42 6 63 15 113 12 155 -10 53 -27 64
-51 57 -122 l-5 -59 26 17 c15 10 44 28 64 42 58 38 65 28 70 -85 5 -112 -2
-128 -46 -119 -17 4 -40 7 -52 7 -26 0 -130 -46 -163 -72 -20 -16 -34 -19 -71
-14 -59 8 -93 -6 -153 -62 -46 -42 -52 -45 -92 -41 -52 6 -101 -13 -163 -66
-41 -34 -48 -36 -111 -36 -59 0 -74 -4 -114 -31 -26 -17 -69 -39 -95 -48 -61
-22 -72 -49 -48 -120 l17 -52 -34 -47 c-19 -26 -44 -67 -57 -91 -31 -62 -70
-223 -70 -291 0 -43 -5 -64 -21 -84 l-20 -26 39 0 c21 0 75 -3 118 -6 l79 -6
-33 21 c-20 13 -42 40 -54 68 -20 45 -20 49 -4 132 21 111 71 212 136 278 29
29 55 53 60 53 4 0 28 -32 53 -70 41 -65 44 -73 36 -108 -5 -20 -12 -50 -15
-67 l-6 -30 24 28 24 29 22 -49 c12 -26 33 -79 47 -118 28 -81 31 -76 -67
-126 -31 -16 -59 -32 -62 -37 -3 -5 72 -12 167 -16 372 -14 667 -34 667 -45 0
-5 -16 -25 -35 -45 -19 -21 -35 -38 -35 -39 0 -1 104 -1 232 1 188 3 237 6
262 19 17 9 94 44 171 78 88 38 176 85 235 127 52 36 132 87 178 113 45 25 82
49 82 52 0 10 -162 -6 -219 -22 -30 -8 -76 -25 -103 -38 -26 -13 -48 -21 -48
-18 0 4 34 34 77 66 128 101 123 96 87 86 -108 -30 -214 -102 -369 -252 l-110
-106 -124 -7 -123 -6 58 38 c33 21 111 71 174 111 63 40 180 117 259 171 132
91 172 121 316 241 28 23 74 55 103 72 66 37 75 51 102 162 22 88 24 191 5
238 -14 33 35 19 76 -22 34 -33 39 -45 39 -83 0 -24 7 -53 15 -64 23 -30 18
-50 -22 -79 -48 -35 -63 -54 -63 -77 0 -14 8 -18 40 -18 51 0 52 -17 2 -49
-66 -42 -223 -163 -219 -168 3 -2 37 12 75 32 74 39 182 71 182 53 0 -19 -76
-102 -117 -128 l-42 -27 97 4 c74 4 101 9 115 23 38 36 82 419 57 494 -9 29
-9 40 1 52 10 13 15 12 36 -8 45 -42 64 -84 66 -146 1 -33 4 -58 6 -56 2 2 14
28 25 56 12 29 28 54 36 56 8 1 45 -14 83 -33 l67 -36 0 -52 0 -52 26 43 c14
23 38 49 53 57 26 13 31 12 66 -12 20 -14 67 -39 104 -56 61 -27 64 -31 43
-40 -30 -14 -84 -98 -143 -223 -50 -107 -139 -268 -144 -262 -2 2 3 34 11 72
8 38 12 71 10 73 -2 3 -25 -31 -51 -74 -33 -56 -45 -70 -41 -48 3 17 10 58 16
93 6 35 24 106 41 159 32 105 34 117 19 108 -14 -8 -97 -174 -125 -248 l-21
-58 4 228 c2 125 2 226 -1 223 -4 -3 -11 -38 -17 -77 -6 -39 -24 -116 -40
-170 l-29 -98 -1 95 c-2 135 -12 148 -33 43 -20 -97 -52 -161 -93 -188 -23
-15 -39 -16 -107 -10 -52 4 -77 3 -73 -3 8 -13 -24 -35 -128 -92 -44 -24 -114
-74 -155 -110 -52 -46 -94 -73 -131 -86 l-55 -19 120 -3 c136 -4 866 17 965
26 l65 7 -32 13 c-17 8 -41 24 -53 37 l-22 24 39 73 c22 40 45 82 51 93 6 11
33 69 61 128 27 59 60 122 72 139 l22 31 27 -30 c52 -58 120 -253 120 -344 0
-73 -30 -108 -120 -142 l-75 -27 115 5 c63 3 141 8 172 12 l58 6 -24 27 c-19
23 -24 44 -29 116 -8 112 -37 215 -89 316 -40 79 -41 80 -24 114 19 41 21 88
4 102 -7 5 -47 24 -89 41 -43 18 -106 50 -142 72 -58 34 -73 39 -129 39 -52 0
-75 6 -133 34 -38 19 -82 37 -97 40 -15 4 -48 25 -74 47 -47 40 -49 41 -103
35 -53 -6 -60 -4 -135 40 -61 36 -84 44 -105 39 -42 -11 -70 -8 -96 9 -24 15
-25 22 -25 105 0 49 3 96 6 105 12 31 100 13 133 -28 24 -29 31 -17 31 49 0
98 17 110 250 173 134 36 136 36 342 37 182 0 205 2 195 15 -75 99 -178 191
-296 265 l-45 28 65 55 c35 31 111 102 169 157 128 124 259 239 324 285 l48
35 -266 3 c-146 1 -266 5 -266 8 0 3 11 20 24 37 72 95 183 372 242 600 18 71
24 119 22 170 l-3 72 -18 -39 c-56 -125 -152 -188 -436 -291 -57 -20 -105 -35
-107 -32 -3 3 -9 47 -15 98 -11 118 -31 215 -75 377 -38 137 -111 332 -125
332 -5 0 -9 -44 -9 -98 0 -58 -6 -119 -15 -148 -27 -92 -147 -249 -185 -242
-10 2 -25 37 -42 98 -54 188 -131 313 -348 565 -111 129 -207 261 -249 343
-21 40 -31 52 -31 33z m88 -289 c27 -63 77 -242 99 -351 19 -101 22 -302 4
-345 -10 -24 -9 -27 2 -18 25 21 38 92 38 202 0 110 -11 174 -65 358 -13 45
-22 82 -21 82 9 0 139 -165 179 -227 51 -79 150 -283 166 -342 5 -21 17 -76
25 -124 8 -47 20 -97 26 -111 16 -34 61 -49 110 -36 45 12 142 114 201 212 21
33 40 64 44 67 6 6 -2 -255 -11 -334 -4 -40 -4 -40 12 10 11 37 16 93 17 212
0 89 2 160 3 159 11 -11 75 -358 79 -430 3 -50 10 -126 16 -168 6 -43 7 -93 4
-112 -9 -45 -52 -108 -101 -145 -74 -57 -80 -40 -34 95 32 95 60 219 58 262
-1 21 -2 22 -6 7 -14 -65 -42 -132 -91 -220 -81 -148 -81 -148 -97 -135 -11 9
-9 23 16 77 39 87 31 93 -10 8 -19 -38 -37 -65 -44 -62 -7 2 -29 10 -49 18
-21 7 -38 17 -38 22 0 5 18 52 40 104 22 53 40 101 40 106 0 6 -30 -32 -67
-84 -68 -97 -114 -152 -120 -145 -5 5 78 219 107 276 12 23 19 47 17 53 -4 14
-59 -64 -125 -183 -29 -52 -50 -81 -46 -65 12 51 54 158 80 202 14 24 22 43
19 43 -10 0 -103 -150 -115 -186 -7 -20 -16 -32 -20 -27 -4 4 -13 46 -20 93
-12 87 -60 285 -80 330 -8 20 -9 15 -4 -30 7 -68 22 -324 19 -328 -1 -1 -17
37 -35 85 -35 95 -141 325 -147 319 -2 -2 10 -52 26 -112 29 -104 51 -223 66
-344 12 -95 -11 -44 -38 86 -34 157 -58 230 -113 330 -40 75 -100 160 -76 109
43 -92 114 -369 137 -537 l6 -47 -52 19 c-29 11 -56 23 -60 27 -4 5 -28 69
-53 144 -47 141 -81 225 -72 179 13 -68 27 -201 24 -236 -3 -33 -9 -18 -41 99
-20 77 -46 158 -57 180 -11 23 -18 34 -15 23 10 -36 33 -181 40 -255 l7 -74
-38 8 c-21 3 -43 14 -50 23 -23 32 -43 119 -54 231 -12 132 -5 221 22 271 l19
35 -6 -35 -5 -35 14 37 c19 47 137 270 142 266 2 -2 -6 -37 -16 -78 -26 -98
-24 -107 6 -41 55 122 109 343 121 497 3 46 9 84 13 84 4 0 17 -22 28 -48z
m451 -678 c10 -43 22 -97 25 -119 4 -35 4 -38 -9 -22 -7 10 -21 51 -31 90 -9
40 -30 114 -45 166 -16 51 -29 96 -28 100 3 19 71 -148 88 -215z m-1348 30
c212 -77 320 -135 399 -213 39 -38 70 -74 70 -80 0 -14 -1 -13 -95 50 -38 25
-97 62 -130 80 l-60 33 56 -61 c34 -37 76 -100 108 -161 28 -55 51 -103 51
-106 0 -17 -26 -1 -67 42 l-46 47 24 -40 c14 -22 30 -53 37 -69 13 -28 11 -28
-35 13 -26 24 -65 62 -86 85 -22 22 -37 34 -34 26 17 -49 90 -219 107 -247 31
-53 24 -49 -38 24 -86 101 -103 126 -182 268 -40 72 -102 175 -139 230 -36 55
-70 106 -74 113 -12 18 -1 16 134 -34z m22 -246 c54 -90 115 -192 136 -228 22
-36 60 -98 86 -139 l47 -74 -62 -61 c-59 -59 -61 -60 -77 -41 -47 60 -106 217
-171 454 -37 138 -66 251 -62 251 3 0 49 -73 103 -162z m2296 -130 c-13 -18
-46 -62 -74 -98 -105 -136 -137 -182 -117 -171 21 11 114 123 157 189 15 23
30 41 32 39 7 -8 -49 -152 -97 -249 -61 -123 -194 -316 -227 -329 -55 -21 -79
-12 -128 47 -45 56 -45 57 -25 71 24 17 85 98 126 168 l29 49 -35 -26 c-19
-14 -55 -36 -78 -48 l-44 -21 7 23 c38 123 92 212 139 234 17 7 67 27 111 44
44 16 112 48 150 69 88 49 104 51 74 9z m-2619 -158 c36 -11 113 -38 172 -62
l106 -41 24 -74 c13 -40 20 -73 16 -73 -5 0 -28 9 -51 21 -38 18 -34 12 46
-63 l88 -83 -17 -25 c-9 -14 -26 -35 -37 -47 l-20 -22 -44 31 c-25 16 -61 44
-81 61 -21 16 -10 3 23 -29 33 -32 69 -64 79 -69 16 -9 16 -12 4 -23 -23 -18
-126 91 -200 212 -33 56 -84 135 -112 176 -82 119 -88 130 -74 130 7 0 42 -9
78 -20z m384 -150 c21 -47 45 -96 53 -108 24 -38 3 -40 -28 -2 -31 37 -63 112
-74 176 -10 54 4 35 49 -66z m604 40 c53 -24 54 -30 0 -19 -74 17 -197 -21
-273 -85 -25 -21 -28 -27 -15 -36 8 -5 10 -10 4 -10 -29 0 -113 -105 -173
-215 l-33 -60 34 36 c18 19 60 66 92 104 33 37 86 85 117 105 65 42 161 66
200 51 23 -9 23 -10 3 -10 -36 -1 -147 -39 -179 -61 l-30 -21 39 7 c46 8 43
-7 -7 -32 -49 -25 -109 -77 -168 -146 -44 -51 -48 -59 -24 -44 17 10 48 34 71
52 58 47 113 73 167 80 l48 7 -22 -54 c-34 -85 -49 -137 -64 -232 -14 -89 -35
-137 -76 -173 l-22 -19 7 30 c4 17 18 55 32 85 14 30 21 51 15 45 -27 -28 -71
-135 -107 -260 l-39 -140 -8 100 c-5 59 -4 153 3 229 5 71 8 131 5 134 -7 7
-25 -44 -42 -118 -8 -36 -17 -78 -21 -93 -6 -25 -16 -32 -79 -52 -40 -12 -93
-35 -118 -49 -25 -15 -45 -24 -45 -21 0 7 155 211 189 249 l26 28 -35 -17
c-19 -9 -48 -31 -63 -48 -30 -34 -31 -35 4 58 16 41 16 46 3 30 -24 -31 -74
-133 -100 -205 l-24 -65 6 75 c12 162 83 341 198 495 130 176 226 252 362 290
68 18 92 18 142 -5z m-951 -94 c8 -15 10 -25 4 -21 -6 3 -20 25 -32 48 -22 47
1 24 28 -27z m1238 -2 c22 -18 24 -24 10 -19 -78 25 -126 6 -205 -82 -50 -56
-150 -237 -137 -249 3 -3 15 11 26 33 22 43 101 138 146 175 41 35 130 78 157
78 19 -1 18 -3 -10 -15 -41 -18 -137 -108 -182 -172 l-34 -48 64 59 c80 71
155 116 197 116 35 0 86 -37 107 -79 20 -37 28 -111 18 -146 -11 -33 -14 -29
-32 50 -15 65 -52 105 -98 105 -56 0 -102 -29 -202 -130 -75 -74 -104 -111
-133 -171 -67 -136 -88 -213 -94 -334 l-5 -110 45 -70 c47 -75 77 -93 159 -94
61 -1 52 16 -11 22 -102 9 -147 50 -139 128 3 32 5 34 38 31 40 -4 46 -11 54
-62 8 -49 19 -56 94 -63 76 -6 85 4 51 60 -22 37 -22 37 -1 19 17 -14 30 -17
69 -12 26 4 62 6 78 6 141 -4 143 -4 134 -21 -11 -22 18 -48 63 -56 39 -6 43
-2 69 62 15 35 21 41 59 47 53 9 63 4 55 -33 -4 -16 -4 -29 -1 -29 11 0 37 62
32 76 -5 12 27 34 50 34 2 0 1 -25 -2 -55 -8 -62 5 -72 31 -27 15 26 72 72 88
72 4 0 2 -10 -3 -22 -14 -35 -42 -150 -37 -155 9 -8 48 41 53 67 11 49 16 56
23 30 l7 -25 13 23 c18 33 10 75 -17 88 -21 10 -21 11 -4 27 27 24 58 21 66
-5 23 -86 -27 -222 -95 -262 -36 -21 -85 -21 -98 2 -11 18 -14 12 -56 -103
-35 -97 -349 -385 -420 -385 -26 0 -73 31 -190 123 -164 131 -200 170 -235
255 -18 42 -38 85 -45 95 -12 17 -13 17 -18 -4 -5 -19 -11 -21 -39 -15 -18 3
-44 14 -58 24 -30 22 -66 92 -76 147 l-7 40 63 -67 c67 -74 87 -84 75 -40 -10
34 -23 185 -17 192 2 3 23 -16 47 -42 64 -71 63 -74 24 87 -18 75 -21 110 -17
210 5 104 10 135 42 230 47 139 100 237 174 316 90 98 177 125 237 73z m521
-99 c52 -31 137 -141 165 -215 62 -164 46 -336 -40 -446 l-19 -24 5 117 c2 65
0 138 -5 163 -9 40 -10 35 -11 -55 -1 -125 -16 -216 -44 -278 l-22 -49 0 144
c0 168 -13 220 -81 314 -51 73 -97 99 -158 91 -30 -4 -50 -15 -73 -41 -38 -41
-42 -31 -12 32 26 54 90 102 134 102 34 0 97 -36 128 -73 l18 -22 -7 25 c-14
53 -46 102 -84 128 -43 29 -50 42 -22 42 25 0 78 -35 113 -75 17 -19 37 -35
45 -35 22 0 67 -68 92 -139 18 -51 22 -57 17 -26 -13 84 -75 191 -161 278 -44
46 -50 49 -91 45 -49 -4 -53 -1 -20 12 40 16 89 11 133 -15z m-1661 -57 c17
-28 58 -82 93 -119 39 -41 59 -70 52 -74 -21 -13 -153 149 -180 220 -16 42 3
28 35 -27z m1961 -82 c56 -73 94 -171 93 -234 0 -36 0 -36 -18 18 -19 60 -60
144 -66 138 -6 -5 19 -99 33 -124 17 -32 42 -169 42 -231 0 -83 -16 -99 -24
-24 -9 79 -31 152 -55 183 -11 13 -22 46 -26 73 -10 76 -34 153 -66 218 l-30
58 33 -3 c28 -2 41 -14 84 -72z m362 -72 c-27 -13 -48 -28 -48 -33 0 -5 41 2
91 15 50 13 130 27 178 30 l86 5 -30 -23 c-16 -13 -66 -56 -110 -96 -44 -40
-110 -91 -147 -114 -70 -41 -91 -61 -38 -33 35 18 40 7 7 -16 -83 -60 -160
-109 -171 -109 -9 0 -15 33 -19 123 -4 67 -13 148 -21 179 -16 67 -15 68 77
69 34 0 82 6 107 13 73 21 89 17 38 -10z m-2348 -14 c23 -13 24 -14 5 -18 -49
-8 -44 -15 42 -57 49 -24 95 -50 102 -58 9 -12 6 -36 -14 -113 -14 -55 -25
-107 -25 -116 0 -10 -3 -18 -7 -18 -3 0 -52 45 -107 99 -56 55 -122 116 -148
137 -27 20 -48 40 -48 43 0 4 -38 29 -85 56 -46 28 -84 54 -85 59 0 15 341 2
370 -14z m1187 -19 c13 -19 23 -41 23 -50 -1 -9 -10 3 -21 26 -12 23 -30 45
-41 49 -42 13 -165 -95 -252 -224 -27 -39 -51 -70 -53 -68 -3 2 8 28 23 57 31
62 137 176 203 220 57 38 88 35 118 -10z m409 -58 c47 -50 61 -78 79 -163 20
-95 19 -96 -19 -14 -56 119 -102 184 -136 191 -41 8 -38 23 5 23 26 0 42 -8
71 -37z m399 -182 c20 -94 19 -102 -5 -66 -21 33 -36 105 -26 131 9 25 14 15
31 -65z m-478 7 c19 -26 37 -63 40 -83 5 -33 2 -41 -38 -82 -42 -43 -168 -150
-198 -168 -16 -9 -10 3 24 50 39 55 38 60 -3 21 -22 -21 -46 -52 -52 -67 -14
-33 -38 -43 -72 -30 -13 5 -36 7 -50 4 -22 -4 -31 3 -66 54 -23 32 -51 64 -63
71 -18 12 -16 4 15 -54 19 -37 34 -69 32 -71 -2 -2 -48 39 -102 91 l-99 94 24
46 c13 25 52 73 88 107 l64 62 52 -8 c69 -11 148 -8 194 8 22 7 65 10 107 7
70 -5 70 -5 103 -52z m-857 -77 c0 -5 -16 -28 -35 -51 -20 -25 -35 -35 -35
-26 0 8 14 31 31 51 32 37 39 41 39 26z m980 -117 c6 -14 10 -38 10 -54 0 -25
-5 -30 -37 -39 -21 -5 -60 -12 -86 -16 -26 -3 -64 -13 -83 -21 -53 -22 -51
-12 3 24 27 18 75 54 108 82 32 27 63 50 67 50 5 0 13 -12 18 -26z m569 -46
c31 -17 94 -54 141 -82 l85 -51 -120 -7 c-88 -4 -156 -15 -255 -41 -74 -19
-136 -34 -138 -32 -12 12 24 43 67 59 28 10 51 23 51 28 0 13 -50 1 -71 -18
-24 -22 -28 -17 -18 24 14 54 41 112 52 112 5 0 32 -19 59 -42 53 -44 67 -42
68 12 0 30 10 70 17 70 3 0 31 -14 62 -32z m-1260 -78 c41 -21 14 -21 -50 1
-35 12 -66 23 -67 25 -2 1 -1 17 3 34 l7 31 42 -39 c24 -22 53 -45 65 -52z
m-861 7 c4 -34 13 -34 80 4 l54 30 23 -21 c12 -11 37 -41 55 -67 27 -37 29
-44 14 -40 -43 12 -117 20 -243 26 l-133 6 63 47 c35 25 69 45 74 44 6 -1 11
-15 13 -29z m334 -39 c18 -55 28 -73 41 -72 24 2 41 -60 17 -64 -39 -7 -65 15
-83 70 -18 59 -23 138 -8 138 6 0 20 -33 33 -72z m201 -23 l6 -50 -15 33 c-8
19 -12 43 -8 54 8 26 10 22 17 -37z m993 -690 c5 -58 9 -73 15 -55 4 14 7 42
8 62 1 37 2 37 29 27 38 -14 72 -48 89 -87 12 -29 12 -40 -2 -85 -25 -84 -23
-83 -175 -90 -74 -4 -150 -11 -169 -17 -19 -5 -36 -8 -39 -6 -2 2 8 26 21 53
13 26 28 59 32 73 7 23 5 23 -30 -10 -20 -19 -56 -63 -80 -96 -50 -70 -98
-114 -125 -114 -37 0 -130 83 -176 156 -60 96 -79 112 -60 53 7 -24 19 -57 25
-73 6 -16 9 -31 7 -34 -3 -2 -38 0 -78 6 -41 6 -105 9 -143 5 l-70 -5 -19 38
c-45 95 -40 151 20 204 48 42 67 37 75 -22 4 -25 12 -55 19 -65 9 -14 10 6 5
89 -4 59 -3 128 1 154 l7 46 64 -64 c36 -34 105 -122 153 -194 100 -149 148
-204 178 -204 48 0 169 139 267 305 26 44 66 99 88 123 l42 43 7 -68 c4 -37
11 -104 14 -148z m-1036 40 c0 -7 -5 -37 -11 -65 -9 -45 -8 -64 16 -158 15
-59 32 -115 36 -124 5 -10 47 -47 92 -84 94 -75 328 -286 324 -291 -2 -1 -31
8 -65 21 -65 26 -73 25 -45 -6 9 -10 11 -18 5 -18 -16 0 -122 40 -152 58 -15
8 -9 -1 15 -23 35 -32 37 -36 15 -30 -14 4 -43 15 -64 26 -22 10 -41 17 -43
15 -2 -2 35 -42 81 -90 46 -47 80 -86 76 -86 -5 0 -57 16 -117 35 -134 44
-203 88 -231 147 -23 47 -59 204 -49 214 12 12 66 -8 141 -53 42 -25 79 -44
80 -42 4 4 -190 172 -205 177 -5 2 -9 10 -9 18 0 9 12 14 36 14 33 0 36 2 30
23 -3 12 -6 25 -6 29 0 3 -22 20 -50 37 -27 17 -50 38 -50 47 0 39 35 132 64
167 39 50 86 72 86 42z m-225 -196 c1 -100 8 -176 29 -299 30 -173 41 -207 84
-247 45 -42 175 -129 242 -163 60 -31 63 -33 45 -47 -16 -12 -41 -13 -128 -8
l-109 7 -88 87 c-98 97 -96 90 -126 285 -10 66 -19 115 -21 109 -2 -6 -12 -66
-22 -134 -11 -68 -20 -117 -20 -109 -1 8 -8 71 -16 140 -8 69 -15 150 -16 180
l-1 55 -13 -70 c-8 -38 -17 -121 -21 -184 l-7 -114 -20 39 c-11 22 -40 84 -64
139 -52 115 -86 169 -91 143 -2 -10 12 -86 31 -170 43 -190 51 -236 35 -220
-18 18 -30 14 -24 -8 18 -63 11 -54 -44 52 -33 65 -78 164 -101 219 -51 129
-65 156 -95 184 l-25 23 28 20 c18 12 54 22 100 26 100 10 151 -12 187 -81
l25 -48 1 36 c0 23 -12 55 -35 93 -19 32 -35 60 -35 62 0 3 15 13 33 24 50 31
93 26 133 -14 l33 -33 7 31 c13 65 70 141 99 132 6 -1 10 -56 10 -137z m1325
-143 c0 -2 -19 -15 -42 -29 -24 -14 -83 -59 -132 -101 l-88 -76 -62 0 c-81 0
-103 -14 -56 -34 l35 -14 -30 -8 c-19 -5 -43 -2 -70 8 -22 9 -65 25 -95 37
-47 18 -52 19 -34 4 12 -10 30 -23 40 -30 17 -10 13 -12 -23 -12 -92 -2 -138
17 -212 84 -39 34 -95 82 -125 106 -30 24 -55 48 -56 53 0 4 58 7 128 4 l129
-4 96 -46 c56 -27 105 -45 115 -42 9 4 53 24 97 45 44 21 105 43 135 48 56 9
250 14 250 7z"/>
<path d="M3352 3295 c0 -16 2 -22 5 -12 2 9 2 23 0 30 -3 6 -5 -1 -5 -18z"/>
<path d="M3331 3219 c-7 -22 -11 -43 -8 -45 2 -2 9 14 16 37 7 22 11 43 8 45
-2 2 -9 -14 -16 -37z"/>
<path d="M3735 3132 c-100 -124 -130 -166 -113 -156 35 19 189 219 176 228 -1
2 -30 -31 -63 -72z"/>
<path d="M2730 2090 c0 -11 33 -37 56 -44 32 -10 157 12 174 31 13 14 12 15
-10 10 -75 -17 -137 -18 -177 -4 -24 8 -43 11 -43 7z"/>
<path d="M2303 2018 c11 -10 27 -18 36 -17 10 0 7 4 -8 10 -14 5 -30 13 -36
17 -6 4 -2 -1 8 -10z"/>
<path d="M2848 2013 c12 -2 32 -2 45 0 12 2 2 4 -23 4 -25 0 -35 -2 -22 -4z"/>
<path d="M2368 1993 c7 -3 16 -2 19 1 4 3 -2 6 -13 5 -11 0 -14 -3 -6 -6z"/>
<path d="M2560 1922 c0 -26 20 -42 52 -42 31 0 44 19 33 48 -6 16 -7 16 -16 0
-12 -22 -35 -23 -43 -3 -8 21 -26 19 -26 -3z"/>
<path d="M2585 1794 c-67 -25 -59 -31 40 -30 52 1 95 4 95 7 0 31 -80 44 -135
23z"/>
<path d="M2588 1723 c18 -2 45 -2 60 0 15 2 0 4 -33 4 -33 0 -45 -2 -27 -4z"/>
<path d="M3810 2699 c-73 -34 -163 -89 -156 -96 5 -5 193 89 221 111 32 24 6
19 -65 -15z"/>
<path d="M1300 2674 c130 -81 172 -105 176 -101 8 8 -65 58 -149 102 -107 58
-121 57 -27 -1z"/>
<path d="M1842 734 c9 -10 32 -28 50 -38 33 -19 33 -19 16 0 -9 10 -32 28 -50
38 -33 19 -33 19 -16 0z"/>
<path d="M3881 1193 c-36 -74 -54 -119 -42 -108 20 19 89 140 84 148 -9 15
-20 5 -42 -40z"/>
<path d="M1156 927 c-33 -43 -66 -135 -65 -179 0 -38 -5 -47 59 106 23 54 39
100 37 103 -3 2 -17 -11 -31 -30z"/>
<path d="M4065 883 c3 -12 12 -53 19 -90 7 -39 15 -62 20 -55 8 13 -17 123
-35 150 -8 14 -9 13 -4 -5z"/>
</g>
</svg>