<svg width="210px" height="297px" viewBox="0 0 210 297" version="1.1" id="svg1" xml:space="preserve" inkscape:version="1.3.2 (091e20e, 2023-11-25)" sodipodi:docname="icon.svg" xmlns:inkscape="http://www.inkscape.org/namespaces/inkscape" xmlns:sodipodi="http://sodipodi.sourceforge.net/DTD/sodipodi-0.dtd" xmlns:xlink="http://www.w3.org/1999/xlink" xmlns="http://www.w3.org/2000/svg" xmlns:svg="http://www.w3.org/2000/svg"><sodipodi:namedview id="namedview1" pagecolor="#ffffff" bordercolor="#000000" borderopacity="0.25" inkscape:showpageshadow="2" inkscape:pageopacity="0.0" inkscape:pagecheckerboard="0" inkscape:deskcolor="#d1d1d1" inkscape:document-units="mm" inkscape:zoom="0.38929562" inkscape:cx="-3.853113" inkscape:cy="616.49808" inkscape:window-width="1600" inkscape:window-height="831" inkscape:window-x="0" inkscape:window-y="32" inkscape:window-maximized="1" inkscape:current-layer="layer1"/><defs id="defs1"><linearGradient id="linearGradient6" inkscape:collect="always"><stop style="stop-color: rgb(78, 0, 254); stop-opacity: 1;" offset="0.53393042" id="stop7"/><stop style="stop-color: rgb(0, 254, 209); stop-opacity: 1;" offset="0.53393042" id="stop8"/></linearGradient><linearGradient inkscape:collect="always" xlink:href="#linearGradient6" id="linearGradient8" x1="45.408422" y1="158.69762" x2="166.5376" y2="158.69762" gradientUnits="userSpaceOnUse"/></defs><g inkscape:label="Layer 1" inkscape:groupmode="layer" id="layer1"><path style="fill: rgb(39, 59, 100); stroke-width: 0.908187px;" d="" id="path14" transform="scale(0.26458333)"/><g id="g1" style="fill:url(#linearGradient8);fill-opacity:1;opacity:1"><path d="m 104.7943,90.700416 c -0.0728,0.07117 -1.84018,0.387085 -3.92774,0.701675 -6.387827,0.962554 -11.631077,2.991379 -16.278217,6.298939 -2.75749,1.96268 -6.84213,6.00815 -8.612457,8.53016 -3.748087,5.33877 -6.198923,12.45421 -6.779948,19.68315 -0.156898,1.94892 -0.32332,2.56858 -0.969698,3.60839 -1.127125,1.81319 -1.254125,2.6924 -1.259945,8.72305 -0.005,4.96067 0.03969,5.49804 0.522816,6.29047 0.922602,1.51315 2.684727,1.74333 3.189023,0.41645 0.137319,-0.36063 0.249502,-1.84256 0.249502,-3.29274 0,-2.17382 0.07435,-2.66568 0.423598,-2.79956 0.755121,-0.28972 0.9144,0.51171 0.840052,4.22963 -0.06853,3.42583 -0.109802,3.68168 -0.663046,4.10104 -1.029229,0.78026 -1.016264,1.84521 0.04233,3.47398 0.51435,0.79137 1.132152,2.04153 1.372923,2.77813 0.625739,1.91347 1.332706,3.23188 1.837002,3.42529 0.239712,0.0921 0.893498,0.0302 1.452827,-0.13731 2.077241,-0.6223 3.313641,0.52281 3.658661,3.38904 0.25717,2.13598 0.68633,2.56011 2.33891,2.31246 1.80975,-0.27146 2.94588,0.0741 4.11031,1.25042 0.70749,0.71438 1.18692,1.00172 1.4814,0.88794 1.34276,-0.5199 1.87166,-0.45561 2.64874,0.32147 0.42863,0.42863 0.91255,1.24619 1.07527,1.8169 0.4609,1.61687 0.63526,5.86263 0.32914,8.01952 -0.35798,2.52174 -0.81862,3.0898 -5.38797,6.64395 -1.96454,1.52797 -4.60084,3.65311 -5.85867,4.72229 -2.59795,2.20874 -2.952489,2.94084 -2.65404,5.4811 0.22278,1.89389 0.94483,2.76834 3.89705,4.72044 8.43253,5.57503 19.936087,8.14096 29.801337,6.64739 7.48745,-1.13374 13.07227,-3.16574 18.38854,-6.69131 3.58643,-2.37861 3.93806,-2.83528 4.06136,-5.27553 l 0.1016,-2.01189 -1.81689,-1.67614 c -0.99934,-0.92181 -3.77614,-3.25543 -6.17062,-5.1853 -3.69067,-2.97471 -4.46987,-3.73089 -5.11598,-4.96438 l -0.76227,-1.45521 0.1016,-4.23334 c 0.0905,-3.77137 0.16881,-4.37144 0.71729,-5.49857 0.74401,-1.52876 1.25677,-1.83991 2.66303,-1.61501 0.9824,0.15716 1.14935,0.0929 1.98147,-0.76385 1.0234,-1.05384 2.2979,-1.39568 4.16136,-1.11628 1.67032,0.25056 2.33839,-0.35904 2.61329,-2.38443 0.23178,-1.70841 0.83635,-2.72309 1.94654,-3.26707 0.60166,-0.29475 0.94218,-0.29845 1.9349,-0.0204 1.1684,0.32702 1.22343,0.31565 1.81557,-0.37254 0.33576,-0.39052 0.85567,-1.53352 1.15544,-2.54 0.32755,-1.09987 0.9652,-2.38918 1.59808,-3.23135 1.26074,-1.67799 1.31048,-2.34103 0.25903,-3.44144 l -0.79375,-0.83079 v -3.51367 c 0,-2.90009 0.0757,-3.58933 0.43286,-3.94652 0.762,-0.762 1.0152,-0.0209 1.15464,3.37873 0.13229,3.22236 0.13256,3.22315 0.85275,3.47557 1.02235,0.35824 1.92908,-0.20585 2.61805,-1.62878 0.53446,-1.10411 0.55801,-1.44701 0.42784,-6.24046 -0.15188,-5.60943 -0.50457,-7.36203 -1.77113,-8.80454 -0.63261,-0.72073 -0.76385,-1.18692 -1.0414,-3.70549 -1.75418,-15.91205 -11.9671,-28.6012 -26.38292,-32.780292 -3.63458,-1.053571 -11.59007,-2.314575 -12.00944,-1.903412 m -6.176697,3.517904 c -4.15898,0.75141 -7.62291,2.2053 -11.68267,4.90352 -4.66567,3.10065 -6.89187,7.43982 -7.41442,14.45154 -0.17648,2.36987 -0.16484,2.4474 0.37491,2.4474 0.51488,0 0.55748,-0.14552 0.56171,-1.91823 0.003,-1.05516 0.17463,-2.71992 0.38232,-3.69994 0.653,-3.08186 3.50917,-8.40475 4.50956,-8.40475 0.55113,0 0.51462,0.24236 -0.51884,3.43932 -2.11508,6.54235 -2.11905,8.62277 -0.0198,10.72197 2.02829,2.02803 3.97827,2.30241 11.21304,1.57692 4.646867,-0.4662 5.105927,-0.36909 6.720407,1.42002 1.10146,1.22079 1.13692,1.32794 0.65564,1.98649 -0.31644,0.43233 -0.42439,0.42016 -1.78594,-0.20161 -2.171957,-0.99192 -4.341537,-1.49622 -7.137927,-1.6592 -4.06532,-0.23681 -9.29296,0.9091 -11.0527,2.42279 -0.63103,0.54292 -0.71914,0.83052 -0.81095,2.64477 -0.0603,1.19354 0.0106,2.14921 0.17119,2.30981 0.18865,0.18865 1.16125,0.0474 3.12975,-0.45508 2.40163,-0.61278 3.19432,-0.70432 4.98184,-0.57441 6.39948,0.46434 11.507257,4.94136 12.597347,11.04212 0.66913,3.74359 -0.47758,7.27525 -3.28269,10.11026 -2.785527,2.81517 -6.115047,4.16375 -10.280387,4.16375 -4.02166,0 -7.15803,-1.18269 -9.56151,-3.60522 -1.69836,-1.71211 -3.22183,-4.43335 -3.625849,-6.47779 -0.15531,-0.78449 -0.338402,-1.69413 -0.407193,-2.02168 -0.173832,-0.82656 -1.113632,-0.79349 -1.324504,0.0466 -0.269346,1.07368 0.340518,4.06691 1.205706,5.91529 1.117335,2.38786 2.34527,3.80259 4.09099,4.71329 0.81015,0.42254 1.54225,0.9853 1.62719,1.25068 0.23442,0.7321 -0.35243,1.8751 -1.22767,2.39236 -0.43048,0.25427 -0.78264,0.57812 -0.78264,0.71967 0,0.14155 0.45297,0.83026 1.00621,1.53061 0.55351,0.70009 1.21841,1.82801 1.47743,2.50614 0.3482,0.91149 0.6485,1.27767 1.15121,1.40388 0.96043,0.24103 1.47134,-0.17357 1.87113,-1.51898 0.56991,-1.9169 0.99245,-2.44527 2.71092,-3.3909 1.32794,-0.73077 2.00978,-0.92551 3.59648,-1.02737 1.62587,-0.10451 2.04629,-0.0455 2.48047,0.3474 0.2876,0.26008 0.52282,0.63314 0.52282,0.82893 0,0.49822 0.96705,0.44609 1.16231,-0.0627 0.0884,-0.23018 0.16246,-1.03372 0.16457,-1.78593 0.002,-0.75195 0.0915,-1.48643 0.19844,-1.63195 0.10689,-0.14552 1.06521,-0.84799 2.12937,-1.56104 1.06415,-0.71279 2.239167,-1.69519 2.611167,-2.18282 0.37174,-0.48736 0.77549,-0.88635 0.89694,-0.88635 0.26273,0 0.77126,1.72058 0.77311,2.61752 0.002,0.61225 -1.27952,2.04338 -3.378457,3.77481 -0.46938,0.38709 -0.85329,0.93663 -0.85329,1.22158 0,0.2847 0.65353,1.33721 1.4523,2.33892 1.591467,1.99575 2.251867,3.55256 2.251867,5.30781 v 1.14353 h -1.45521 c -0.800357,0 -1.453617,0.0892 -1.452027,0.19843 0.002,0.10928 0.42757,0.47334 0.945877,0.8091 0.54346,0.35216 1.15597,1.08056 1.44622,1.71979 0.46619,1.02685 0.50403,1.85103 0.50932,11.09319 l 0.006,9.98432 0.79666,1.52506 c 0.63818,1.22237 0.84587,2.05078 1.04458,4.17089 0.27992,2.98635 0.65669,3.57214 2.29764,3.57214 2.13333,0 3.26945,-1.05093 3.26945,-3.02419 0,-0.48022 0.23813,-1.17581 0.52917,-1.54596 0.51118,-0.64982 0.52917,-1.07447 0.53075,-12.53728 8e-4,-7.30727 0.10584,-12.24043 0.27332,-12.84368 0.16669,-0.60007 0.67813,-1.32662 1.32133,-1.87748 0.57732,-0.49398 1.0496,-0.97605 1.0496,-1.0713 0,-0.0952 -0.65484,-0.17303 -1.45521,-0.17303 h -1.45519 v -1.18058 c 0,-1.75207 0.90382,-3.85233 2.3876,-5.54778 0.72417,-0.82735 1.31657,-1.69598 1.31657,-1.92987 0,-0.23389 -0.89324,-1.26868 -1.98517,-2.29976 -1.83171,-1.72931 -1.98491,-1.95633 -1.98067,-2.93264 0.006,-1.1856 0.50641,-2.38125 0.99801,-2.38125 0.17806,0 0.53181,0.4146 0.78581,0.92154 0.4273,0.8517 2.02538,2.14048 4.00949,3.23321 0.78132,0.43048 0.81836,0.52652 0.81836,2.1299 0,1.5023 0.28284,2.31431 0.80619,2.31431 0.0939,0 0.60007,-0.41672 1.12448,-0.92604 0.77311,-0.75089 1.15755,-0.92604 2.03147,-0.92604 2.17884,0 5.5364,1.65311 6.10102,3.00381 0.13071,0.31247 0.36486,1.07289 0.5207,1.68989 0.49319,1.95422 2.24155,1.82907 2.91412,-0.20875 0.20029,-0.60722 0.87683,-1.67376 1.50284,-2.37014 0.62627,-0.69665 1.13876,-1.32424 1.13876,-1.39488 0,-0.0706 -0.48524,-0.61384 -1.07817,-1.20677 -1.48273,-1.48246 -1.35599,-1.97855 0.88767,-3.47556 1.97988,-1.32107 3.2856,-2.95328 4.21799,-5.27368 0.56806,-1.4142 0.59452,-1.81875 0.59849,-9.15247 0.005,-8.56403 0.0344,-8.73389 1.89018,-10.78785 0.88318,-0.97764 0.94562,-1.15411 0.80804,-2.27965 -0.9107,-7.4467 -7.15354,-17.26856 -14.13854,-22.24432 -4.32303,-3.07948 -9.3173,-5.0329 -14.28247,-5.58667 -2.14736,-0.23945 -2.58128,-0.21987 -3.1332,0.14181 l -0.64082,0.4199 v 11.64775 11.64749 l -0.64955,0.64928 c -0.93239,0.93266 -1.61131,0.83344 -2.22118,-0.32517 -0.21563,-0.40931 -0.30427,-3.88408 -0.30427,-11.91366 0,-13.260385 0.14499,-12.52564 -2.46248,-12.4878 -0.90117,0.013 -2.572537,0.19235 -3.714217,0.39873 m 28.219927,8.11027 c 0.0794,0.32729 0.8173,2.50031 1.63962,4.82864 1.26948,3.59463 1.4785,4.44421 1.3851,5.63166 -0.13203,1.68116 -1.1131,3.22448 -2.80644,4.4151 -1.10331,0.77603 -1.2319,0.80116 -4.09363,0.80116 -1.62481,0 -4.57676,-0.10583 -6.56008,-0.23521 -1.98305,-0.12938 -3.92483,-0.15505 -4.31509,-0.0571 -1.02923,0.25823 -3.05938,2.21562 -3.05938,2.94984 0,0.89508 0.44292,0.90725 2.72654,0.0749 3.03556,-1.10702 6.45239,-1.63566 9.23845,-1.42981 2.90433,0.21458 6.11849,1.02632 7.38664,1.86558 1.18295,0.7829 1.46606,0.56435 1.72588,-1.33218 0.17383,-1.26841 0.38417,-1.57163 2.0394,-2.94032 0.80275,-0.6641 0.87075,-1.48166 0.42069,-5.07047 -0.42704,-3.40519 -1.76794,-6.21215 -4.2582,-8.91408 -1.20095,-1.30281 -1.69069,-1.4986 -1.4695,-0.58764 m -26.80546,22.0263 c -0.275697,0.33205 -0.0397,0.70352 1.44727,2.27991 1.2147,1.28773 2.10476,2.56196 2.81463,4.02987 1.75075,3.62082 2.1254,3.64834 3.76635,0.27781 0.80539,-1.65391 1.46023,-2.51407 3.14219,-4.12723 1.49913,-1.43775 2.07645,-2.16377 1.96056,-2.46565 -0.24156,-0.62971 -0.9951,-0.30586 -3.74914,1.61051 -3.21945,2.24023 -3.36074,2.26113 -5.1488,0.76624 -1.48537,-1.24196 -3.5724,-2.76807 -3.78565,-2.76807 -0.0651,0 -0.26644,0.17859 -0.44741,0.39661 m 19.59795,1.60178 c -4.35584,0.94457 -7.58534,3.38217 -9.4324,7.11941 l -1.03769,2.09947 v 3.33481 3.33481 l 1.03372,2.09153 c 1.63963,3.31761 4.34711,5.50677 8.1788,6.61273 2.19393,0.63341 5.9182,0.58261 8.13673,-0.1106 4.22275,-1.32 7.91105,-4.9731 9.08659,-9.00006 1.59491,-5.46391 -1.5158,-11.82211 -7.07205,-14.45498 -3.06334,-1.45151 -5.59091,-1.74334 -8.8937,-1.02712 m -33.227697,2.71093 c -3.83328,1.32556 -5.99652,3.62002 -7.14851,7.58269 -0.91837,3.15886 0.0548,6.6974 2.51962,9.16226 1.28509,1.28508 4.13438,2.81834 5.71342,3.07472 l 0.92921,0.15081 -0.0791,-1.82033 -0.0791,-1.82007 -1.2737,-0.83212 c -1.778,-1.16178 -2.3884,-1.78514 -3.19061,-3.25913 -0.95171,-1.74863 -1.16099,-3.94917 -0.56912,-5.9862 0.90091,-3.10065 4.23598,-5.4057 7.82161,-5.4057 1.60629,0 1.973,-0.29237 1.25995,-1.00542 -0.48816,-0.48816 -4.33255,-0.38497 -5.90365,0.15849 m 33.605517,-0.10875 c -3.17606,0.77338 -6.30952,3.17712 -7.68614,5.89598 -0.70962,1.40176 -0.78052,1.78276 -0.78052,4.18782 0,2.31008 0.0881,2.83051 0.69453,4.10104 1.05568,2.21166 2.38389,3.56288 4.54527,4.62439 3.39884,1.66926 7.01993,1.85526 9.96262,0.5117 2.86438,-1.30783 3.93912,-2.57042 3.03663,-3.56764 -0.64215,-0.70961 -1.21285,-0.64214 -2.96334,0.34952 -1.40096,0.79375 -1.70021,0.85989 -3.89863,0.85989 -2.80141,2.7e-4 -4.2119,-0.5207 -5.81052,-2.14656 -1.56104,-1.58777 -2.36775,-3.56341 -2.37278,-5.81104 -0.008,-3.46843 2.25293,-6.77043 5.24325,-7.65863 1.6928,-0.50245 2.47279,-0.49213 4.54845,0.0609 1.30519,0.34792 1.76715,0.37967 2.00819,0.13864 0.50773,-0.50774 -0.44741,-1.31313 -1.93596,-1.63222 -1.63486,-0.35057 -2.89427,-0.32702 -4.59105,0.0863 m 8.22087,2.69426 c -0.49345,0.49344 -0.54345,1.46737 -0.0982,1.91267 0.17463,0.17462 0.62706,0.3175 1.00542,0.3175 1.34567,0 1.82853,-1.46791 0.73475,-2.23388 -0.74243,-0.52017 -1.11866,-0.51938 -1.64201,0.004 m -7.09639,2.78051 c -0.7022,0.40904 -0.58923,1.52029 0.1905,1.87536 0.4998,0.22781 0.74904,0.21881 1.05833,-0.0378 0.56621,-0.4699 0.50536,-1.52161 -0.10689,-1.84943 -0.60907,-0.32597 -0.56091,-0.3265 -1.14194,0.0119 m -32.375997,0.36036 c -0.39688,1.03426 0.5715,2.10741 1.41975,1.57321 0.99907,-0.62918 0.5678,-1.95474 -0.63606,-1.95474 -0.35057,0 -0.70326,0.17171 -0.78369,0.38153 m 43.091627,3.51261 c -0.204,0.0733 -0.33073,0.62045 -0.33073,1.42795 0,0.7202 -0.1786,1.73699 -0.39688,2.25928 -0.7067,1.69122 -0.39502,2.96492 0.48684,1.99046 1.4732,-1.62772 1.66661,-6.18993 0.24077,-5.67769 m -3.19802,2.159 c -0.19474,0.12356 -0.3138,0.50853 -0.26459,0.85592 0.10716,0.75883 1.19407,0.88583 1.63248,0.19077 0.50403,-0.79931 -0.52096,-1.58353 -1.36789,-1.04669 m -26.09771,10.5336 c -0.25929,0.40905 -0.95991,1.17396 -1.55707,1.70021 l -1.085317,0.95674 0.950377,1.43139 c 1.10305,1.66159 1.28006,2.13307 1.6719,4.46035 0.15955,0.94589 0.40614,1.70762 0.54848,1.6928 0.14209,-0.0148 0.49081,-0.42386 0.7747,-0.9091 0.71279,-1.21841 0.85858,-4.76409 0.30401,-7.38585 -0.52493,-2.4802 -0.94536,-2.98979 -1.60708,-1.94654 m 6.24152,0.095 c -1.04563,1.71953 -1.14273,7.8113 -0.14578,9.14665 0.72152,0.96652 1.17237,1.08955 1.17792,0.3212 0.0116,-1.56871 0.83317,-4.38891 1.59359,-5.47105 l 0.80777,-1.14961 -0.74004,-0.93028 c -0.40693,-0.5117 -0.99351,-1.27979 -1.30334,-1.70709 -0.31009,-0.42704 -0.63103,-0.84402 -0.71331,-0.9263 -0.0823,-0.0825 -0.38682,0.23997 -0.67681,0.71649 m -43.107235,9.78323 c -2.730765,0.71543 -4.398433,1.68884 -6.5532,3.82535 -2.841096,2.81728 -4.071673,5.77612 -4.077494,9.80466 -0.0074,4.96121 2.217473,9.10088 6.375136,11.86128 1.874573,1.24486 3.992827,1.97643 6.754812,2.33283 l 2.220119,0.28654 -0.167481,1.63618 c -0.128323,1.25016 -0.06562,1.8333 0.265112,2.47333 0.993246,1.92061 3.573463,2.15741 5.120217,0.46937 1.577446,-1.72111 0.954087,-4.01929 -1.270794,-4.68577 -1.265237,-0.37915 -1.417637,-1.14671 -0.316442,-1.59517 3.114411,-1.26842 5.594883,-3.11732 6.032503,-4.49686 0.22145,-0.69744 -0.34978,-1.28111 -1.48008,-1.51236 -1.40785,-0.28787 -1.516593,-0.81783 -0.4535,-2.21059 0.58314,-0.76412 0.99246,-1.64995 1.10305,-2.38867 0.26855,-1.78964 -0.45535,-4.57596 -1.470025,-5.65943 -0.465666,-0.49716 -0.653785,-0.53473 -1.503627,-0.3011 -2.477823,0.68157 -4.436533,2.30955 -5.502804,4.57359 -0.743744,1.57956 -0.838464,4.21614 -0.232833,6.48229 0.213783,0.80037 0.323585,1.66317 0.243681,1.9177 -0.33311,1.06178 -3.231621,0.91652 -5.767917,-0.28919 -2.315898,-1.10066 -3.699933,-2.41538 -4.715668,-4.47833 -0.8001,-1.62508 -0.871009,-1.97433 -0.871009,-4.28837 0,-2.28098 0.07938,-2.68658 0.839788,-4.29207 1.030287,-2.17462 2.657739,-3.84758 4.732866,-4.86516 1.41658,-0.69453 1.831182,-0.77021 4.21693,-0.77021 2.493168,0 2.761191,0.055 4.64476,0.95462 1.303338,0.62257 2.479146,1.44251 3.378994,2.35691 1.518184,1.54199 1.585644,1.5449 3.315754,0.14526 1.01309,-0.81968 0.82233,-1.31181 -1.33164,-3.4343 -3.854189,-3.79756 -8.590231,-5.14614 -13.529208,-3.85233 m 73.821655,-7.9e-4 c -5.30198,1.38906 -8.8384,4.90484 -10.14994,10.09068 -1.64227,6.49446 1.22158,12.70079 7.2345,15.67868 1.26921,0.62865 2.20054,1.25492 2.20054,1.47981 0,0.21432 -0.41672,0.58632 -0.92604,0.8263 -1.44886,0.68289 -1.98438,1.43589 -1.98438,2.79082 0,1.02844 0.12938,1.30175 0.98822,2.08889 1.34038,1.22819 2.95037,1.27926 4.23307,0.13441 0.80566,-0.71914 0.87312,-0.91176 0.99642,-2.84427 l 0.13229,-2.07302 1.5875,-0.22304 c 6.64051,-0.93266 11.1506,-4.71884 12.69788,-10.65954 1.99311,-7.65201 -3.21257,-15.74879 -11.21648,-17.4453 -2.29473,-0.48657 -3.46233,-0.45508 -5.79358,0.15558 m 0.84191,4.07193 c -3.98939,0.96812 -6.80562,4.4122 -7.17444,8.77359 -0.24369,2.88263 1.27793,6.53627 3.29221,7.90522 0.7612,0.517 1.02393,0.57071 1.64676,0.33576 1.01097,-0.3818 2.42306,0.42915 2.75326,1.58115 0.28654,0.9988 1.08241,1.18692 3.55944,0.84111 5.11254,-0.71358 8.58096,-5.15303 8.17906,-10.46798 -0.33258,-4.39764 -3.23771,-7.78854 -7.688,-8.97334 -1.63459,-0.43524 -2.76119,-0.43418 -4.56829,0.005 m -43.562057,2.60297 0.73025,1.38906 0.0712,10.98021 c 0.0643,9.90203 0.11483,11.01275 0.51355,11.31094 0.57362,0.42889 0.74639,0.41725 1.24857,-0.0849 0.36275,-0.36301 0.41566,-1.65577 0.41566,-10.1735 0,-11.38528 -0.0828,-12.04516 -1.71952,-13.68637 -0.61675,-0.61833 -1.31657,-1.12447 -1.55549,-1.12447 -0.36512,0 -0.31776,0.22145 0.29581,1.38906 m 18.044837,-0.40931 c -1.56024,1.31286 -1.57189,1.41023 -1.57189,13.149 0,10.55767 0.007,10.70874 0.54187,10.87834 1.27106,0.40349 1.28323,0.29977 1.36552,-11.47048 0.0759,-10.88152 0.0847,-11.03763 0.67759,-12.14755 0.7247,-1.35652 0.31115,-1.52347 -1.01309,-0.40931 m -10.46716,1.09696 c -0.45402,0.28495 -0.95991,0.90434 -1.12448,1.37636 -0.19473,0.558 -0.29924,3.41418 -0.29924,8.16822 0,6.18781 0.0632,7.40013 0.41195,7.89781 0.5805,0.82894 1.8542,0.76518 3.3065,-0.16563 2.26801,-1.45309 2.16535,-1.07288 2.2823,-8.43703 0.0574,-3.60363 0.004,-6.90113 -0.11827,-7.32764 -0.47572,-1.65947 -2.90962,-2.4847 -4.45876,-1.51209 m -39.153304,3.31972 c -2.416704,2.41671 0.271198,5.84359 3.339042,4.25715 0.96229,-0.49768 1.317625,-1.14141 1.317625,-2.3876 0,-1.3761 -1.397529,-2.76913 -2.778125,-2.76913 -0.760677,0 -1.179777,0.20082 -1.878542,0.89958 m 80.959324,-0.71093 c -0.95488,0.17621 -2.00766,1.50495 -2.00766,2.53338 0,1.19936 0.41804,1.94204 1.37054,2.4347 1.56766,0.81068 3.05144,0.34025 3.86001,-1.22343 0.97552,-1.88622 -0.98028,-4.15846 -3.22289,-3.74465 m -62.147447,18.69096 c -1.76424,1.2827 -2.67441,2.11931 -2.73129,2.51037 -0.1315,0.90064 1.10886,1.86584 4.89241,3.80603 4.05394,2.0791 6.87281,3.10171 11.24981,4.08173 2.925767,0.6551 3.770317,0.72998 8.284897,0.73342 4.51776,0.003 5.37078,-0.0709 8.41772,-0.73237 5.94731,-1.2909 10.98947,-3.26363 15.07226,-5.89676 2.80378,-1.80817 2.77203,-1.91691 -1.35282,-4.63974 -2.38072,-1.57136 -2.80617,-1.76556 -3.2938,-1.50468 -0.30797,0.1651 -2.05449,1.25624 -3.88091,2.42517 -1.82641,1.16893 -5.57424,3.47371 -8.32829,5.1218 -5.68245,3.40069 -6.22617,3.54754 -8.6307,2.32913 -2.02989,-1.0287 -7.464957,-4.32726 -12.193587,-7.40066 -2.35215,-1.52876 -4.40796,-2.77469 -4.5683,-2.7686 -0.16033,0.006 -1.48219,0.87683 -2.9374,1.93516" stroke="none" fill="#3A3A3A" fill-rule="evenodd" id="path1" style="fill:url(#linearGradient8);fill-opacity:1;stroke-width:0.264583"/><text xml:space="preserve" style="font-style:normal;font-variant:normal;font-weight:normal;font-stretch:normal;font-size:25.4px;font-family:'JetBrainsMono Nerd Font';-inkscape-font-specification:'JetBrainsMono Nerd Font';fill:url(#linearGradient8);fill-opacity:1;stroke-width:0.264583" x="42.944622" y="224.5027" id="text16"><tspan sodipodi:role="line" id="tspan16" style="fill:url(#linearGradient8);fill-opacity:1;stroke-width:0.264583" x="42.944622" y="224.5027">Code</tspan></text><text xml:space="preserve" style="font-style:normal;font-variant:normal;font-weight:normal;font-stretch:normal;font-size:29.2992px;font-family:'JetBrainsMono Nerd Font';-inkscape-font-specification:'JetBrainsMono Nerd Font';opacity:1;fill:url(#linearGradient8);fill-opacity:1;stroke-width:0.305199" x="103.88848" y="218.55603" id="text17" transform="scale(0.96375891,1.0376039)"><tspan sodipodi:role="line" id="tspan17" style="fill:url(#linearGradient8);fill-opacity:1;stroke-width:0.305199" x="103.88848" y="218.55603">Link</tspan></text></g></g></svg>